<svg width="512" height="512" viewBox="0 0 512 512" fill="none" xmlns="http://www.w3.org/2000/svg">
<style>
    @media (prefers-color-scheme: dark) {
        .gray { fill: #B7B7B7; }
        .black { fill: #F5F5F5; }
        .blue { fill: #44C9BD; }
    }
</style>
<mask id="mask0_193_1571" style="mask-type:alpha" maskUnits="userSpaceOnUse" x="96" y="72" width="320" height="369">
    <rect x="96" y="72" width="320" height="368.485" fill="#D9D9D9"/>
</mask>
<g mask="url(#mask0_193_1571)">
    <path d="M417 325L416 440.485H382.061V395.5C401.178 374.755 412.152 358.939 417 325Z" fill="#636363" class="gray"/>
    <path fill-rule="evenodd" clip-rule="evenodd" d="M416 138.272C412.627 144.944 405.212 149.576 396.606 149.576C388.001 149.576 380.585 144.944 377.212 138.273V239C386.909 209.909 396.884 183.746 416 164.604V138.272Z" fill="#636363" class="gray"/>
    <path fill-rule="evenodd" clip-rule="evenodd" d="M131.21 120.485H96V279.992C96.0003 368.084 167.656 439.501 256.048 439.501C344.438 439.501 416.093 368.084 416.093 279.992C416.093 279.433 416.09 278.874 416.084 278.317C416.985 210.375 472.533 155.575 540.917 155.575C608.795 155.575 664.016 209.562 665.713 276.8H665.756V279.881V279.992V280.104V348.578L665.765 439.501H700.972V279.996C700.972 191.904 629.309 120.485 540.917 120.485C452.526 120.485 380.873 191.901 380.873 279.992C380.873 280.929 380.88 281.865 380.896 282.797L380.852 282.796C379.355 350.212 324.051 404.409 256.048 404.409C187.102 404.409 131.21 348.708 131.21 279.992V279.956C131.21 278.904 131.224 277.85 131.251 276.803H131.21V120.485Z" fill="#0F0F0F" class="black"/>
    <circle cx="396.606" cy="120.485" r="19.3939" fill="#246BFD" class="blue"/>
</g>
</svg>
