<?xml version="1.0" standalone="no"?>
<!DOCTYPE svg PUBLIC "-//W3C//DTD SVG 20010904//EN"
 "http://www.w3.org/TR/2001/REC-SVG-20010904/DTD/svg10.dtd">
<svg version="1.0" xmlns="http://www.w3.org/2000/svg"
 width="700.000000pt" height="700.000000pt" viewBox="0 0 700.000000 700.000000"
 preserveAspectRatio="xMidYMid meet">
<metadata>
Created by potrace 1.14, written by Peter Selinger 2001-2017
</metadata>
<g transform="translate(0.000000,700.000000) scale(0.100000,-0.100000)"
fill="#000000" stroke="none">
<path d="M5338 5602 c-100 -31 -179 -138 -180 -240 -1 -201 198 -331 377 -246
94 44 149 130 149 234 0 186 -170 309 -346 252z"/>
<path d="M1329 5352 c-13 -2 -15 -151 -13 -1190 0 -653 4 -1203 8 -1224 4 -20
8 -54 10 -75 2 -21 6 -47 9 -58 3 -11 8 -36 11 -55 10 -66 57 -232 92 -329
112 -298 272 -548 494 -772 129 -129 155 -153 255 -225 334 -243 679 -377
1080 -421 67 -8 357 -10 420 -3 84 8 237 32 295 46 36 9 72 17 80 19 39 9 163
50 230 77 513 201 943 601 1176 1095 59 124 113 273 145 397 27 106 37 164 58
330 7 64 14 1566 6 1566 -4 0 -106 -137 -120 -161 -5 -10 -31 -53 -57 -96
-129 -215 -240 -523 -274 -758 -3 -27 -8 -59 -10 -69 -5 -29 -13 -165 -19
-320 -3 -76 -8 -148 -11 -160 -2 -12 -6 -37 -8 -56 -2 -19 -7 -46 -10 -60 -3
-14 -8 -37 -10 -52 -6 -37 -55 -195 -73 -238 -121 -278 -228 -437 -421 -621
-111 -106 -273 -220 -409 -288 -44 -23 -85 -41 -90 -41 -4 0 -21 -7 -37 -15
-72 -38 -292 -95 -436 -113 -76 -9 -320 -9 -403 1 -280 33 -559 143 -799 313
-111 79 -308 277 -390 394 -80 113 -185 320 -226 446 -33 100 -67 246 -78 339
-4 33 -8 578 -8 1212 -1 634 -5 1155 -8 1158 -6 6 -430 13 -459 7z"/>
<path d="M5157 4432 c1 -367 2 -671 3 -677 0 -5 8 10 17 35 91 263 121 341
201 505 89 181 217 373 291 433 13 11 16 41 16 192 l1 178 -37 -41 c-43 -50
-109 -85 -177 -96 -50 -8 -58 -7 -122 4 -62 11 -179 94 -180 128 0 4 -3 7 -7
7 -5 0 -7 -300 -6 -668z"/>
<path d="M5682 2440 c0 -14 2 -19 5 -12 2 6 2 18 0 25 -3 6 -5 1 -5 -13z"/>
<path d="M5652 2318 c-58 -234 -170 -435 -363 -651 l-64 -71 -1 -308 -1 -308
232 0 232 0 1 715 c1 393 -2 715 -6 715 -4 0 -17 -42 -30 -92z"/>
</g>
</svg>
