<svg width="238" height="96" viewBox="0 0 238 96" fill="none" xmlns="http://www.w3.org/2000/svg">
<g clip-path="url(#clip0_9_2)">
<path fill-rule="evenodd" clip-rule="evenodd" d="M122.777 35.8796C121.48 36.7132 120.332 37.6994 119.366 38.7818V0H122.777V35.8796Z" fill="#B7B7B7"/>
<path fill-rule="evenodd" clip-rule="evenodd" d="M146.233 51.476V64.4133H149.865V59.0066C148.075 56.8776 146.801 54.3039 146.233 51.476ZM149.865 51.0925C149.659 50.1873 149.545 49.2472 149.535 48.2823L149.361 47.9643H149.865V51.0925Z" fill="#B7B7B7"/>
<path fill-rule="evenodd" clip-rule="evenodd" d="M120.485 51.476V64.4133H116.853V59.0066C118.643 56.8776 119.918 54.3039 120.485 51.476ZM116.853 51.0925C117.059 50.1873 117.173 49.2472 117.183 48.2823L117.357 47.9643H116.853V51.0925Z" fill="#B7B7B7"/>
<path fill-rule="evenodd" clip-rule="evenodd" d="M33.0084 51.476V64.4133H29.3774V59.0066C31.167 56.8776 32.4412 54.3039 33.0084 51.476ZM29.3774 51.0925C29.5832 50.1873 29.6964 49.2472 29.7068 48.2823L29.8809 47.9643H29.3774V51.0925Z" fill="#B7B7B7"/>
<path fill-rule="evenodd" clip-rule="evenodd" d="M29.3774 44.4525V31.5152H33.0084V36.9222C31.2189 39.0505 29.9448 41.6244 29.3774 44.4525ZM33.0084 44.8362C32.8027 45.7412 32.6895 46.6811 32.6793 47.6464L32.5052 47.9644H33.0084V44.8362Z" fill="#B7B7B7"/>
<path fill-rule="evenodd" clip-rule="evenodd" d="M204.989 51.476V64.4133H208.621V59.0066C206.831 56.8776 205.556 54.3039 204.989 51.476ZM208.621 51.0925C208.415 50.1873 208.301 49.2472 208.291 48.2823L208.117 47.9643H208.621V51.0925Z" fill="#B7B7B7"/>
<path fill-rule="evenodd" clip-rule="evenodd" d="M179.242 51.476V64.4133H175.612V59.0066C177.402 56.8776 178.675 54.3039 179.242 51.476ZM175.612 51.0925C175.817 50.1873 175.93 49.2472 175.941 48.2823L176.116 47.9643H175.612V51.0925Z" fill="#B7B7B7"/>
<path fill-rule="evenodd" clip-rule="evenodd" d="M177.223 40.0725C174.42 34.9727 168.984 31.5152 162.738 31.5152C156.51 31.5152 151.087 34.9533 148.278 40.0291C149.191 41.7647 149.809 43.6791 150.063 45.7067C151.133 39.6973 156.402 35.1339 162.738 35.1339C169.086 35.1339 174.361 39.7125 175.419 45.737C175.679 43.7129 176.303 41.802 177.223 40.0725ZM177.607 47.7999H179.078V50.2996C179.187 49.5369 179.243 48.7572 179.243 47.9644C179.243 47.2035 179.191 46.4548 179.091 45.7214C178.983 46.3701 178.922 47.0353 178.914 47.7126H177.627L177.607 47.7999ZM146.562 47.9804C146.563 47.9246 146.563 47.8689 146.563 47.8127C146.563 47.0869 146.504 46.3749 146.391 45.6809C146.287 46.4274 146.233 47.1896 146.233 47.9644C146.233 49.9675 146.593 51.8864 147.251 53.6612L148.238 49.1865L147.501 47.3094L146.828 47.9804H146.562Z" fill="#B7B7B7"/>
<path fill-rule="evenodd" clip-rule="evenodd" d="M118.465 40.0725C115.662 34.9727 110.226 31.5152 103.98 31.5152C95.0308 31.5152 87.7447 38.6147 87.4824 47.4707H91.1156C91.3762 40.6133 97.0366 35.1339 103.98 35.1339C110.328 35.1339 115.602 39.7125 116.661 45.737C116.921 43.7129 117.545 41.802 118.465 40.0725ZM118.85 47.7999H120.321V50.2996C120.429 49.5369 120.485 48.7572 120.485 47.9644C120.485 47.2035 120.433 46.4548 120.333 45.7214C120.225 46.3701 120.164 47.0353 120.156 47.7126H118.869L118.85 47.7999ZM88.4922 53.6612C88.4409 53.5232 88.3922 53.3848 88.3444 53.2446C88.4734 53.0336 88.5998 52.8248 88.722 52.6195L88.4922 53.6612Z" fill="#B7B7B7"/>
<path fill-rule="evenodd" clip-rule="evenodd" d="M205.32 47.8127C205.32 47.8688 205.319 47.9246 205.318 47.9804H205.583L206.257 47.3094L206.931 49.0259L205.927 53.4454C205.32 51.7308 204.989 49.8859 204.989 47.9644C204.989 47.1896 205.043 46.4274 205.147 45.6809C205.261 46.3749 205.32 47.0869 205.32 47.8127ZM207.034 40.0291C207.947 41.7647 208.564 43.6791 208.819 45.7064C209.889 39.6972 215.157 35.1339 221.494 35.1339C228.604 35.1339 234.368 40.8785 234.368 47.9644H237.999C237.999 38.8799 230.609 31.5152 221.494 31.5152C215.266 31.5152 209.843 34.9533 207.034 40.0291Z" fill="#B7B7B7"/>
<path d="M75.0968 35.1339C76.0998 35.1339 76.9121 34.3237 76.9121 33.3244C76.9121 32.3251 76.0998 31.5152 75.0968 31.5152C74.0942 31.5152 73.2815 32.3251 73.2815 33.3244C73.2815 34.3237 74.0942 35.1339 75.0968 35.1339Z" fill="#44c9bd"/>
<path fill-rule="evenodd" clip-rule="evenodd" d="M3.63105 31.5152H0V47.9644C3.18539e-05 57.0489 7.3895 64.4137 16.5049 64.4137C25.6202 64.4137 33.0096 57.0489 33.0096 47.9644C33.0096 47.9067 33.0093 47.8491 33.0087 47.7916L33.0094 47.7917C33.1023 40.7852 38.83 35.1339 45.8821 35.1339C52.882 35.1339 58.5766 40.7013 58.7517 47.6352H58.7561V47.9529V47.9644V47.9759V55.0373L58.757 55.0371V64.4137H62.3877V47.9648H62.3871V47.9644C62.3871 38.88 54.9975 31.5152 45.8821 31.5152C36.7667 31.5152 29.3775 38.88 29.3775 47.9644C29.3775 48.061 29.3782 48.1575 29.3799 48.2536L29.3754 48.2535C29.221 55.2058 23.5178 60.7949 16.5049 60.7949C9.39485 60.7949 3.63108 55.0507 3.63105 47.9644V47.9607C3.63108 47.8522 3.63248 47.7435 3.63522 47.6355H3.63105V31.5152ZM73.0916 64.6285V35.0089C73.4714 35.6085 74.1424 36.0069 74.907 36.0069C75.6715 36.0069 76.3426 35.6085 76.7223 35.0089V64.6285H73.0916ZM146.232 48.1289L146.232 48.0569V47.9644C146.232 40.8785 140.469 35.1339 133.359 35.1339C126.277 35.1339 120.531 40.8327 120.486 47.8795V47.9647V48.0514V48.1289H120.485C120.459 50.763 119.812 53.249 118.682 55.4481L118.709 55.5476L118.669 55.4727C115.932 60.7816 110.382 64.4137 103.981 64.4137C98.6812 64.4137 93.9656 61.9247 90.9457 58.0557V95.814H87.5346V49.3722C87.5005 48.962 87.48 48.5475 87.4765 48.1292H87.5346V47.9068H90.9457V48.1292H91.108C91.196 55.1392 96.9256 60.7952 103.981 60.7952C110.982 60.7952 116.677 55.2253 116.851 48.2892H116.857C116.855 48.1812 116.854 48.0729 116.854 47.9644C116.854 38.88 124.244 31.5152 133.359 31.5152C142.475 31.5152 149.864 38.88 149.864 47.9644C149.864 48.0719 149.862 48.1792 149.861 48.2862L149.865 48.2933H149.868C150.043 55.2272 155.738 60.7946 162.738 60.7946C169.738 60.7946 175.432 55.2272 175.607 48.2933H175.615C175.613 48.1839 175.612 48.0743 175.612 47.9644C175.612 38.8799 183.001 31.5152 192.116 31.5152C201.232 31.5152 208.622 38.8799 208.622 47.9644C208.622 48.0039 208.622 48.0432 208.621 48.0825C208.685 55.1141 214.423 60.7951 221.495 60.7951C221.605 60.7951 221.715 60.7935 221.824 60.7909V64.4103C221.714 64.4126 221.605 64.4135 221.495 64.4135C212.38 64.4135 204.989 57.0488 204.989 47.9646C204.989 47.9097 204.989 47.8548 204.99 47.7999H204.989C204.9 40.7896 199.171 35.1339 192.116 35.1339C185.062 35.1339 179.332 40.7896 179.244 47.7999H179.242V47.8644V47.9643C179.242 57.0485 171.853 64.4133 162.738 64.4133C153.677 64.4133 146.323 57.1373 146.234 48.1289H146.232Z" fill="#f5f5f5"/>
<path d="M208.951 45.9903H237.674L238 47.7999V49.6091H209.116L208.951 45.9903Z" fill="#B7B7B7"/>
</g>
<defs>
<clipPath id="clip0_9_2">
<rect width="238" height="96" fill="white"/>
</clipPath>
</defs>
</svg>
