<svg width="370" height="370" viewBox="0 0 370 370" fill="none" xmlns="http://www.w3.org/2000/svg">
<rect width="370" height="370" fill="#EFEFEF"/>
<g opacity="0.3">
<mask id="mask0_200_765" style="mask-type:alpha" maskUnits="userSpaceOnUse" x="155" y="150" width="60" height="70">
<rect x="155" y="150.5" width="60" height="69.0909" fill="#D9D9D9"/>
</mask>
<g mask="url(#mask0_200_765)">
<path d="M215.187 197.938L215 219.591H208.636V211.156C212.221 207.267 214.278 204.301 215.187 197.938Z" fill="#636363"/>
<path fill-rule="evenodd" clip-rule="evenodd" d="M215 162.926C214.368 164.177 212.977 165.045 211.364 165.045C209.75 165.045 208.36 164.177 207.728 162.926V181.812C209.546 176.358 211.416 171.452 215 167.863V162.926Z" fill="#636363"/>
<path fill-rule="evenodd" clip-rule="evenodd" d="M161.602 159.591H155V189.499C155 206.016 168.435 219.406 185.009 219.406C201.582 219.406 215.017 206.016 215.017 189.499C215.017 189.394 215.017 189.289 215.016 189.184C215.185 176.445 225.6 166.17 238.422 166.17C251.149 166.17 261.503 176.293 261.821 188.9H261.829V189.478V189.499V189.519V202.358L261.831 219.406H268.432V189.499C268.432 172.982 254.995 159.591 238.422 159.591C221.849 159.591 208.414 172.981 208.414 189.499C208.414 189.674 208.415 189.85 208.418 190.024L208.41 190.024C208.129 202.665 197.76 212.827 185.009 212.827C172.082 212.827 161.602 202.383 161.602 189.499V189.492C161.602 189.295 161.605 189.097 161.609 188.901H161.602V159.591Z" fill="#0F0F0F"/>
<circle cx="211.364" cy="159.591" r="3.63636" fill="#246BFD"/>
</g>
</g>
</svg>
