<svg width="151" height="150" viewBox="0 0 151 150" fill="none" xmlns="http://www.w3.org/2000/svg">
    <rect x="66.7464" y="13.6033" width="18.4128" height="18.4128" rx="9.20641" fill="#36DB51" fill-opacity="0.42"/>
    <g filter="url(#filter0_b_208_765)">
        <path fill-rule="evenodd" clip-rule="evenodd"
              d="M123.998 50.429C129.242 50.429 133.493 54.68 133.493 59.9239V74.9899C134.87 75.182 136.219 75.5484 137.509 76.0827C139.502 76.9082 141.313 78.1181 142.838 79.6434C144.363 81.1688 145.573 82.9796 146.399 84.9725C147.224 86.9654 147.649 89.1014 147.649 91.2585C147.649 93.4156 147.224 95.5516 146.399 97.5445C145.573 99.5375 144.363 101.348 142.838 102.874C141.313 104.399 139.502 105.609 137.509 106.434C136.219 106.969 134.87 107.335 133.493 107.527V130.696C133.493 135.94 129.242 140.191 123.998 140.191H25.6062C20.3623 140.191 16.1112 135.94 16.1112 130.696V107.682C14.0614 107.642 12.036 107.22 10.1402 106.434C8.14724 105.609 6.33643 104.399 4.81112 102.874C3.2858 101.348 2.07586 99.5375 1.25037 97.5445C0.424875 95.5516 0 93.4156 0 91.2585C0 89.1014 0.424875 86.9654 1.25037 84.9725C2.07586 82.9796 3.2858 81.1688 4.81111 79.6434C6.33643 78.1181 8.14723 76.9082 10.1402 76.0827C12.036 75.2974 14.0614 74.8747 16.1112 74.8354V59.9239C16.1112 54.68 20.3623 50.429 25.6062 50.429H123.998Z"
              fill="#36DB51" fill-opacity="0.42"/>
    </g>
    <rect x="67.2464" y="9.5" width="17.4128" height="17.4128" rx="8.70641" stroke="#36DB51"/>
    <g filter="url(#filter1_i_208_765)">
        <circle cx="106.01" cy="68.8771" r="5.55286" fill="white"/>
    </g>
    <g filter="url(#filter2_i_208_765)">
        <circle cx="46.3405" cy="68.8771" r="5.55286" fill="white"/>
    </g>
    <g filter="url(#filter3_b_208_765)">
        <path
            d="M75.0692 38.573H74.5692V39.073H75.0692V38.573ZM75.0692 26.4795V25.9795L74.5692 25.9795V26.4795H75.0692ZM76.0692 38.573V39.073H76.5692V38.573H76.0692ZM76.0692 26.4795H76.5692V25.9795H76.0692V26.4795ZM18.3637 71.361L18.4448 71.8544L18.8637 71.7855V71.361H18.3637ZM14.7433 72.3936L14.552 71.9317L14.7433 72.3936ZM9.41426 75.9544L9.0607 75.6008H9.0607L9.41426 75.9544ZM5.85351 81.2834L5.39157 81.0921L5.85351 81.2834ZM4.60314 87.5694H5.10314H4.60314ZM5.85351 93.8555L6.31545 93.6641H6.31545L5.85351 93.8555ZM9.41426 99.1845L9.76781 98.8309H9.76781L9.41426 99.1845ZM14.7433 102.745L14.552 103.207L14.7433 102.745ZM18.3637 103.778H18.8637V103.353L18.4448 103.285L18.3637 103.778ZM135.745 103.851L135.679 103.356L135.245 103.414V103.851H135.745ZM139.86 102.745L139.669 102.283L139.86 102.745ZM145.189 99.1845L145.542 99.5381V99.538L145.189 99.1845ZM148.75 93.8555L149.212 94.0468L148.75 93.8555ZM148.75 81.2834L149.212 81.0921V81.0921L148.75 81.2834ZM145.189 75.9544L145.542 75.6008L145.189 75.9544ZM139.86 72.3936L139.669 72.8556L139.86 72.3936ZM135.745 71.2874H135.245V71.7252L135.679 71.783L135.745 71.2874ZM75.5692 38.573V26.4795H74.5692V38.573H75.5692ZM76.0692 38.073H75.0692V39.073H76.0692V38.073ZM75.5692 26.4795V38.573H76.5692V26.4795H75.5692ZM75.0692 26.9795L76.0692 26.9795V25.9795L75.0692 25.9795V26.9795ZM126.25 39.4208C131.218 39.4208 135.245 43.448 135.245 48.4158H136.245C136.245 42.8957 131.77 38.4208 126.25 38.4208V39.4208ZM27.8586 39.4208H126.25V38.4208H27.8586V39.4208ZM18.8637 48.4158C18.8637 43.448 22.8909 39.4208 27.8586 39.4208V38.4208C22.3386 38.4208 17.8637 42.8957 17.8637 48.4158H18.8637ZM18.8637 71.361V48.4158H17.8637V71.361H18.8637ZM14.9346 72.8556C16.0651 72.3873 17.2431 72.052 18.4448 71.8544L18.2825 70.8676C17.0053 71.0777 15.7534 71.434 14.552 71.9317L14.9346 72.8556ZM9.76781 76.3079C11.2467 74.829 13.0024 73.6559 14.9346 72.8556L14.552 71.9317C12.4984 72.7823 10.6324 74.0291 9.0607 75.6008L9.76781 76.3079ZM6.31545 81.4748C7.11581 79.5425 8.28893 77.7868 9.76781 76.3079L9.0607 75.6008C7.48896 77.1726 6.24219 79.0385 5.39157 81.0921L6.31545 81.4748ZM5.10314 87.5694C5.10314 85.478 5.51508 83.407 6.31545 81.4748L5.39157 81.0921C4.54095 83.1457 4.10314 85.3467 4.10314 87.5694H5.10314ZM6.31545 93.6641C5.51508 91.7319 5.10314 89.6609 5.10314 87.5694H4.10314C4.10314 89.7922 4.54095 91.9932 5.39157 94.0468L6.31545 93.6641ZM9.76781 98.8309C8.28893 97.3521 7.11582 95.5964 6.31545 93.6641L5.39157 94.0468C6.24219 96.1004 7.48897 97.9663 9.06071 99.5381L9.76781 98.8309ZM14.9346 102.283C13.0024 101.483 11.2467 100.31 9.76781 98.8309L9.06071 99.5381C10.6324 101.11 12.4984 102.357 14.552 103.207L14.9346 102.283ZM18.4448 103.285C17.2431 103.087 16.0651 102.752 14.9346 102.283L14.552 103.207C15.7534 103.705 17.0053 104.061 18.2825 104.271L18.4448 103.285ZM18.8637 119.188V103.778H17.8637V119.188H18.8637ZM27.8586 128.183C22.8909 128.183 18.8637 124.156 18.8637 119.188H17.8637C17.8637 124.708 22.3386 129.183 27.8586 129.183V128.183ZM126.25 128.183H27.8586V129.183H126.25V128.183ZM135.245 119.188C135.245 124.156 131.218 128.183 126.25 128.183V129.183C131.77 129.183 136.245 124.708 136.245 119.188H135.245ZM135.245 103.851V119.188H136.245V103.851H135.245ZM139.669 102.283C138.388 102.814 137.047 103.173 135.679 103.356L135.811 104.347C137.265 104.153 138.69 103.771 140.051 103.207L139.669 102.283ZM144.835 98.8309C143.356 100.31 141.601 101.483 139.669 102.283L140.051 103.207C142.105 102.357 143.971 101.11 145.542 99.5381L144.835 98.8309ZM148.288 93.6641C147.487 95.5964 146.314 97.3521 144.835 98.8309L145.542 99.538C147.114 97.9663 148.361 96.1004 149.212 94.0468L148.288 93.6641ZM149.5 87.5694C149.5 89.6609 149.088 91.7319 148.288 93.6641L149.212 94.0468C150.062 91.9932 150.5 89.7922 150.5 87.5694H149.5ZM148.288 81.4748C149.088 83.407 149.5 85.478 149.5 87.5694H150.5C150.5 85.3467 150.062 83.1457 149.212 81.0921L148.288 81.4748ZM144.835 76.3079C146.314 77.7868 147.487 79.5425 148.288 81.4748L149.212 81.0921C148.361 79.0385 147.114 77.1726 145.542 75.6008L144.835 76.3079ZM139.669 72.8556C141.601 73.6559 143.356 74.829 144.835 76.3079L145.542 75.6008C143.971 74.0291 142.105 72.7823 140.051 71.9317L139.669 72.8556ZM135.679 71.783C137.047 71.9655 138.388 72.3252 139.669 72.8556L140.051 71.9317C138.69 71.3681 137.265 70.9857 135.811 70.7918L135.679 71.783ZM135.245 48.4158V71.2874H136.245V48.4158H135.245Z"
            fill="#36DB51"/>
    </g>
    <rect x="67" y="116" width="16" height="2" rx="1" fill="white"/>
    <defs>
        <filter id="filter0_b_208_765" x="-12.9677" y="37.4612" width="173.585" height="115.698"
                filterUnits="userSpaceOnUse" color-interpolation-filters="sRGB">
            <feFlood flood-opacity="0" result="BackgroundImageFix"/>
            <feGaussianBlur in="BackgroundImageFix" stdDeviation="6.48387"/>
            <feComposite in2="SourceAlpha" operator="in" result="effect1_backgroundBlur_208_765"/>
            <feBlend mode="normal" in="SourceGraphic" in2="effect1_backgroundBlur_208_765" result="shape"/>
        </filter>
        <filter id="filter1_i_208_765" x="100.457" y="63.3242" width="11.1057" height="11.4073"
                filterUnits="userSpaceOnUse" color-interpolation-filters="sRGB">
            <feFlood flood-opacity="0" result="BackgroundImageFix"/>
            <feBlend mode="normal" in="SourceGraphic" in2="BackgroundImageFix" result="shape"/>
            <feColorMatrix in="SourceAlpha" type="matrix" values="0 0 0 0 0 0 0 0 0 0 0 0 0 0 0 0 0 0 127 0"
                           result="hardAlpha"/>
            <feOffset dy="0.301576"/>
            <feGaussianBlur stdDeviation="0.150788"/>
            <feComposite in2="hardAlpha" operator="arithmetic" k2="-1" k3="1"/>
            <feColorMatrix type="matrix" values="0 0 0 0 1 0 0 0 0 1 0 0 0 0 1 0 0 0 0.3 0"/>
            <feBlend mode="normal" in2="shape" result="effect1_innerShadow_208_765"/>
        </filter>
        <filter id="filter2_i_208_765" x="40.7877" y="63.3242" width="11.1057" height="11.4073"
                filterUnits="userSpaceOnUse" color-interpolation-filters="sRGB">
            <feFlood flood-opacity="0" result="BackgroundImageFix"/>
            <feBlend mode="normal" in="SourceGraphic" in2="BackgroundImageFix" result="shape"/>
            <feColorMatrix in="SourceAlpha" type="matrix" values="0 0 0 0 0 0 0 0 0 0 0 0 0 0 0 0 0 0 127 0"
                           result="hardAlpha"/>
            <feOffset dy="0.301576"/>
            <feGaussianBlur stdDeviation="0.150788"/>
            <feComposite in2="hardAlpha" operator="arithmetic" k2="-1" k3="1"/>
            <feColorMatrix type="matrix" values="0 0 0 0 1 0 0 0 0 1 0 0 0 0 1 0 0 0 0.3 0"/>
            <feBlend mode="normal" in2="shape" result="effect1_innerShadow_208_765"/>
        </filter>
        <filter id="filter3_b_208_765" x="-8.86461" y="13.0117" width="172.332" height="129.139"
                filterUnits="userSpaceOnUse" color-interpolation-filters="sRGB">
            <feFlood flood-opacity="0" result="BackgroundImageFix"/>
            <feGaussianBlur in="BackgroundImageFix" stdDeviation="6.48387"/>
            <feComposite in2="SourceAlpha" operator="in" result="effect1_backgroundBlur_208_765"/>
            <feBlend mode="normal" in="SourceGraphic" in2="effect1_backgroundBlur_208_765" result="shape"/>
        </filter>
    </defs>
</svg>
